<svg width="17" height="16" viewBox="0 0 17 16" fill="none" xmlns="http://www.w3.org/2000/svg">
<path d="M8.50002 1.41258C10.5959 1.41258 10.8441 1.42177 11.6684 1.45854C12.4344 1.49225 12.8481 1.62094 13.1238 1.72819C13.4885 1.86914 13.752 2.04073 14.0247 2.31344C14.3005 2.58922 14.469 2.84967 14.61 3.21431C14.7172 3.49008 14.8459 3.90681 14.8796 4.66979C14.9164 5.49711 14.9256 5.74531 14.9256 7.83813C14.9256 9.93402 14.9164 10.1822 14.8796 11.0065C14.8459 11.7725 14.7172 12.1862 14.61 12.462C14.469 12.8266 14.2974 13.0901 14.0247 13.3628C13.7489 13.6386 13.4885 13.8071 13.1238 13.9481C12.8481 14.0553 12.4313 14.184 11.6684 14.2177C10.841 14.2545 10.5928 14.2637 8.50002 14.2637C6.40413 14.2637 6.15594 14.2545 5.33168 14.2177C4.56563 14.184 4.15197 14.0553 3.8762 13.9481C3.51156 13.8071 3.24804 13.6355 2.97533 13.3628C2.69956 13.087 2.53103 12.8266 2.39008 12.462C2.28283 12.1862 2.15414 11.7695 2.12043 11.0065C2.08366 10.1792 2.07447 9.93096 2.07447 7.83813C2.07447 5.74224 2.08366 5.49405 2.12043 4.66979C2.15414 3.90374 2.28283 3.49008 2.39008 3.21431C2.53103 2.84967 2.70262 2.58615 2.97533 2.31344C3.25111 2.03767 3.51156 1.86914 3.8762 1.72819C4.15197 1.62094 4.5687 1.49225 5.33168 1.45854C6.15594 1.42177 6.40413 1.41258 8.50002 1.41258ZM8.50002 0C6.37043 0 6.10384 0.00919249 5.26733 0.0459625C4.43388 0.0827324 3.86088 0.217556 3.36448 0.410598C2.84664 0.612833 2.40846 0.879415 1.97335 1.31759C1.53518 1.7527 1.26859 2.19088 1.06636 2.70566C0.873317 3.20512 0.738494 3.77505 0.701724 4.6085C0.664954 5.44808 0.655762 5.71467 0.655762 7.84426C0.655762 9.97386 0.664954 10.2404 0.701724 11.077C0.738494 11.9104 0.873317 12.4834 1.06636 12.9798C1.26859 13.4976 1.53518 13.9358 1.97335 14.3709C2.40846 14.806 2.84664 15.0757 3.36142 15.2749C3.86088 15.4679 4.43081 15.6027 5.26426 15.6395C6.10078 15.6763 6.36736 15.6855 8.49696 15.6855C10.6265 15.6855 10.8931 15.6763 11.7296 15.6395C12.5631 15.6027 13.1361 15.4679 13.6325 15.2749C14.1473 15.0757 14.5854 14.806 15.0206 14.3709C15.4557 13.9358 15.7253 13.4976 15.9245 12.9829C16.1175 12.4834 16.2524 11.9135 16.2891 11.08C16.3259 10.2435 16.3351 9.97692 16.3351 7.84733C16.3351 5.71773 16.3259 5.45115 16.2891 4.61463C16.2524 3.78118 16.1175 3.20818 15.9245 2.71179C15.7314 2.19088 15.4649 1.7527 15.0267 1.31759C14.5916 0.882479 14.1534 0.612833 13.6386 0.413662C13.1392 0.22062 12.5692 0.0857966 11.7358 0.0490266C10.8962 0.0091925 10.6296 0 8.50002 0Z" fill="white"/>
</svg>
