<svg width="16" height="16" viewBox="0 0 16 16" fill="none" xmlns="http://www.w3.org/2000/svg">
<path d="M14.8419 0H1.46964C1.16249 0 0.867918 0.122016 0.650729 0.339205C0.433539 0.556394 0.311523 0.850966 0.311523 1.15812V14.5304C0.311523 14.8376 0.433539 15.1321 0.650729 15.3493C0.867918 15.5665 1.16249 15.6885 1.46964 15.6885H14.8419C15.1491 15.6885 15.4437 15.5665 15.6608 15.3493C15.878 15.1321 16 14.8376 16 14.5304V1.15812C16 0.850966 15.878 0.556394 15.6608 0.339205C15.4437 0.122016 15.1491 0 14.8419 0ZM4.98758 13.3647H2.62885V5.8723H4.98758V13.3647ZM3.80658 4.83403C3.53902 4.83252 3.27791 4.75179 3.05619 4.60202C2.83447 4.45226 2.66208 4.24017 2.56079 3.99253C2.45949 3.74488 2.43382 3.47278 2.48702 3.21056C2.54022 2.94834 2.6699 2.70776 2.8597 2.51917C3.0495 2.33059 3.29091 2.20245 3.55347 2.15094C3.81602 2.09942 4.08796 2.12684 4.33494 2.22972C4.58193 2.33261 4.79291 2.50635 4.94125 2.72903C5.08959 2.9517 5.16864 3.21333 5.16843 3.48089C5.17095 3.66002 5.13739 3.83783 5.06973 4.00371C5.00207 4.1696 4.90171 4.32016 4.77463 4.44643C4.64754 4.5727 4.49634 4.6721 4.33002 4.73869C4.16371 4.80528 3.98569 4.8377 3.80658 4.83403ZM13.6816 13.3712H11.324V9.27802C11.324 8.07088 10.8109 7.69827 10.1484 7.69827C9.449 7.69827 8.76263 8.22558 8.76263 9.30852V13.3712H6.4039V5.87775H8.6722V6.91602H8.70271C8.93041 6.45517 9.72791 5.66748 10.9449 5.66748C12.261 5.66748 13.6827 6.44864 13.6827 8.73655L13.6816 13.3712Z" fill="white"/>
</svg>
