<svg width="120" height="120" viewBox="0 0 120 120" fill="none" xmlns="http://www.w3.org/2000/svg">
<rect width="120" height="120" rx="60" fill="#F4F4FA"/>
<path d="M79.0399 55.4095L70.8079 44.4895C70.6559 44.2895 70.4239 44.1694 70.1679 44.1694C69.9199 44.1694 69.6799 44.2895 69.5278 44.4895L61.2959 55.4095C61.1119 55.6575 61.0798 55.9774 61.2159 56.2495C61.3519 56.5214 61.6319 56.6975 61.9359 56.6975H64.1359V76.4975C64.1359 76.9455 64.4879 77.2975 64.9359 77.2975H67.2639V71.4986C67.2639 69.6739 68.5663 68.1894 70.1678 68.1894C71.7647 68.1894 73.0639 69.6739 73.0639 71.4986V77.2975H75.3999C75.8399 77.2975 76.1999 76.9455 76.1999 76.4975V56.6975H78.3999C78.7039 56.6975 78.9839 56.5214 79.1119 56.2495C79.2479 55.9774 79.2239 55.6575 79.0399 55.4095Z" fill="#8F90A6"/>
<path d="M62.5358 58.2976H61.9358C61.0239 58.2976 60.1999 57.7856 59.7838 56.9695C59.3758 56.1536 59.4639 55.1936 60.0079 54.4576L63.8478 49.3695H62.3998V45.8496C62.3998 45.5695 62.2478 45.3136 62.0079 45.1695L58.0559 42.8175C57.8079 42.6655 57.5039 42.6655 57.2559 42.8096C56.9998 42.9456 56.8478 43.2175 56.8478 43.5056V49.3695H45.5838C45.2559 49.3695 44.9599 49.5695 44.8398 49.8815L40.8559 60.2815C40.7599 60.5215 40.7918 60.8016 40.9438 61.0175C41.0878 61.2335 41.3358 61.3695 41.5998 61.3695H44.0639V76.4976C44.0639 76.9456 44.4239 77.2976 44.8639 77.2976H62.6798C62.5918 77.0496 62.5358 76.7775 62.5358 76.4976V58.2976ZM52.5039 68.7695H47.2639V64.5695H52.5039V68.7695ZM59.3358 68.7695H54.1039V64.5695H59.3358V68.7695Z" fill="#1DAEFF"/>
</svg>
