<svg width="16" height="14" viewBox="0 0 16 14" fill="none" xmlns="http://www.w3.org/2000/svg">
<path d="M4.93373 13.2182C10.8539 13.2182 14.0921 8.31334 14.0921 4.05987C14.0921 3.92056 14.0921 3.78187 14.0826 3.64381C14.7126 3.18816 15.2564 2.62398 15.6885 1.97769C15.1011 2.23812 14.4779 2.40883 13.8398 2.48411C14.5118 2.08189 15.0147 1.44918 15.2549 0.703779C14.6231 1.07874 13.9318 1.34297 13.211 1.48507C12.7257 0.969031 12.0838 0.627324 11.3848 0.512826C10.6857 0.398328 9.96837 0.517422 9.3438 0.851678C8.71923 1.18593 8.22224 1.71672 7.92973 2.36189C7.63721 3.00707 7.56549 3.73066 7.72566 4.42071C6.44595 4.35651 5.19405 4.02394 4.05121 3.44457C2.90836 2.8652 1.90012 2.05199 1.09192 1.05771C0.680312 1.76631 0.554244 2.60514 0.739387 3.40342C0.924529 4.2017 1.40696 4.89941 2.08846 5.35449C1.57619 5.33948 1.07509 5.20128 0.627541 4.95161V4.9924C0.627744 5.73554 0.884997 6.45574 1.35567 7.03084C1.82633 7.60593 2.48144 8.00052 3.20987 8.14767C2.736 8.27693 2.2388 8.29582 1.75649 8.2029C1.96225 8.84242 2.36271 9.40166 2.90188 9.80243C3.44105 10.2032 4.09198 10.4255 4.76366 10.4382C4.0963 10.9628 3.33206 11.3506 2.51466 11.5795C1.69726 11.8085 0.842745 11.874 0 11.7724C1.472 12.7169 3.18472 13.218 4.93373 13.2157" fill="white"/>
</svg>
